<svg xmlns="http://www.w3.org/2000/svg" xmlns:xlink="http://www.w3.org/1999/xlink" width="200" zoomAndPan="magnify" viewBox="0 0 150 74.999997" height="100" preserveAspectRatio="xMidYMid meet" version="1.0"><defs><g/><clipPath id="9d6a145a4e"><path d="M 45.386719 53.609375 L 49.332031 53.609375 L 49.332031 55.785156 L 45.386719 55.785156 Z M 45.386719 53.609375 " clip-rule="nonzero"/></clipPath><clipPath id="cc12b9c33c"><path d="M 47 19.035156 L 48 19.035156 L 48 22 L 47 22 Z M 47 19.035156 " clip-rule="nonzero"/></clipPath><clipPath id="9c0442da75"><path d="M 64.296875 39.066406 L 67.550781 39.066406 L 67.550781 39.640625 L 64.296875 39.640625 Z M 64.296875 39.066406 " clip-rule="nonzero"/></clipPath><clipPath id="0463d17bfe"><path d="M 27.050781 38 L 31 38 L 31 40 L 27.050781 40 Z M 27.050781 38 " clip-rule="nonzero"/></clipPath></defs><path fill="#ffffff" d="M 44.082031 30.15625 C 42.609375 30.15625 41.375 31.308594 41.269531 32.777344 L 41.257812 32.933594 L 41.121094 33 C 39.671875 33.707031 38.769531 35.144531 38.769531 36.753906 C 38.769531 37.613281 39.03125 38.4375 39.523438 39.140625 L 39.585938 39.234375 L 39.566406 39.34375 C 39.558594 39.382812 39.550781 39.421875 39.546875 39.460938 L 39.535156 39.535156 L 39.488281 39.59375 C 38.765625 40.476562 38.363281 41.589844 38.363281 42.734375 C 38.363281 45.167969 40.175781 47.269531 42.582031 47.625 L 42.6875 47.640625 L 42.75 47.722656 C 43.402344 48.550781 44.421875 49.089844 45.625 49.242188 C 45.816406 49.265625 46 49.207031 46.144531 49.082031 C 46.289062 48.953125 46.371094 48.769531 46.371094 48.578125 L 46.371094 30.195312 C 46.371094 29.761719 46.058594 29.566406 45.789062 29.53125 C 45.523438 29.496094 45.171875 29.601562 45.0625 30.015625 L 44.992188 30.296875 L 44.734375 30.234375 C 44.519531 30.183594 44.300781 30.15625 44.082031 30.15625 Z M 45.707031 49.78125 C 45.660156 49.78125 45.609375 49.777344 45.558594 49.773438 C 44.253906 49.609375 43.136719 49.027344 42.398438 48.136719 C 41.152344 47.929688 40.011719 47.289062 39.175781 46.332031 C 38.308594 45.332031 37.828125 44.054688 37.828125 42.734375 C 37.828125 41.503906 38.246094 40.300781 39.007812 39.335938 C 38.503906 38.570312 38.234375 37.679688 38.234375 36.753906 C 38.234375 35.855469 38.492188 34.980469 38.972656 34.222656 C 39.414062 33.53125 40.027344 32.96875 40.75 32.585938 C 40.945312 30.914062 42.382812 29.621094 44.082031 29.621094 C 44.261719 29.621094 44.445312 29.636719 44.625 29.667969 C 44.839844 29.199219 45.320312 28.929688 45.859375 29 C 46.363281 29.066406 46.90625 29.46875 46.90625 30.195312 L 46.90625 48.578125 C 46.90625 48.925781 46.757812 49.253906 46.5 49.484375 C 46.28125 49.675781 45.996094 49.78125 45.707031 49.78125 " fill-opacity="1" fill-rule="nonzero"/><path fill="#ffffff" d="M 42.824219 48.148438 C 42.671875 48.148438 42.515625 48.136719 42.359375 48.117188 L 42.433594 47.585938 C 43 47.664062 43.585938 47.570312 44.085938 47.320312 L 44.324219 47.796875 C 43.867188 48.027344 43.347656 48.148438 42.824219 48.148438 " fill-opacity="1" fill-rule="nonzero"/><path fill="#ffffff" d="M 44.4375 48 C 44.675781 47.855469 44.753906 47.546875 44.613281 47.308594 C 44.46875 47.070312 44.160156 46.992188 43.921875 47.136719 C 43.683594 47.277344 43.605469 47.585938 43.75 47.824219 C 43.890625 48.066406 44.199219 48.140625 44.4375 48 " fill-opacity="1" fill-rule="nonzero"/><path fill="#ffffff" d="M 41.566406 41.464844 C 40.5 41.015625 39.617188 40.277344 39.007812 39.335938 L 39.460938 39.042969 C 40.007812 39.898438 40.808594 40.5625 41.773438 40.972656 L 41.566406 41.464844 " fill-opacity="1" fill-rule="nonzero"/><path fill="#ffffff" d="M 41.46875 41.679688 C 41.730469 41.777344 42.019531 41.644531 42.117188 41.382812 C 42.214844 41.125 42.085938 40.832031 41.824219 40.734375 C 41.5625 40.636719 41.273438 40.769531 41.175781 41.03125 C 41.078125 41.289062 41.210938 41.582031 41.46875 41.679688 " fill-opacity="1" fill-rule="nonzero"/><path fill="#ffffff" d="M 40.285156 33.535156 L 39.964844 33.105469 C 40.867188 32.433594 41.953125 32.054688 43.105469 32.007812 L 43.128906 32.542969 C 42.082031 32.585938 41.097656 32.929688 40.285156 33.535156 " fill-opacity="1" fill-rule="nonzero"/><path fill="#ffffff" d="M 43.09375 32.78125 C 43.371094 32.78125 43.597656 32.554688 43.59375 32.277344 C 43.59375 32 43.371094 31.773438 43.089844 31.773438 C 42.8125 31.773438 42.589844 32 42.589844 32.277344 C 42.589844 32.554688 42.816406 32.78125 43.09375 32.78125 " fill-opacity="1" fill-rule="nonzero"/><path fill="#ffffff" d="M 43.898438 35.644531 L 43.585938 35.210938 C 44.339844 34.671875 44.886719 33.851562 45.085938 32.957031 C 45.320312 31.914062 45.085938 30.773438 44.453125 29.90625 L 44.886719 29.589844 C 45.605469 30.582031 45.875 31.882812 45.609375 33.074219 C 45.378906 34.09375 44.757812 35.03125 43.898438 35.644531 " fill-opacity="1" fill-rule="nonzero"/><path fill="#ffffff" d="M 43.492188 34.988281 C 43.257812 35.136719 43.191406 35.449219 43.339844 35.683594 C 43.488281 35.917969 43.796875 35.984375 44.03125 35.835938 C 44.265625 35.6875 44.335938 35.375 44.1875 35.140625 C 44.039062 34.90625 43.726562 34.839844 43.492188 34.988281 " fill-opacity="1" fill-rule="nonzero"/><path fill="#ffffff" d="M 46.566406 44.269531 C 45.792969 44.046875 45.097656 43.417969 44.554688 42.453125 C 44.363281 42.117188 44.203125 41.765625 44.046875 41.429688 C 43.839844 40.984375 43.644531 40.5625 43.394531 40.167969 C 42.9375 39.449219 42.300781 38.847656 41.554688 38.425781 L 41.816406 37.960938 C 42.640625 38.425781 43.34375 39.089844 43.847656 39.878906 C 44.117188 40.304688 44.328125 40.761719 44.53125 41.203125 C 44.683594 41.53125 44.839844 41.871094 45.019531 42.1875 C 45.347656 42.777344 45.910156 43.523438 46.714844 43.753906 L 46.566406 44.269531 " fill-opacity="1" fill-rule="nonzero"/><path fill="#ffffff" d="M 41.476562 38.65625 C 41.230469 38.527344 41.132812 38.222656 41.261719 37.976562 C 41.386719 37.730469 41.691406 37.632812 41.9375 37.761719 C 42.183594 37.886719 42.28125 38.191406 42.152344 38.4375 C 42.027344 38.6875 41.722656 38.78125 41.476562 38.65625 " fill-opacity="1" fill-rule="nonzero"/><path fill="#ffffff" d="M 49.042969 29.527344 C 49.007812 29.527344 48.976562 29.527344 48.945312 29.53125 C 48.675781 29.566406 48.363281 29.761719 48.363281 30.195312 L 48.363281 48.578125 C 48.363281 48.769531 48.445312 48.953125 48.589844 49.082031 C 48.734375 49.207031 48.917969 49.265625 49.109375 49.242188 C 50.3125 49.089844 51.332031 48.550781 51.984375 47.722656 L 52.050781 47.640625 L 52.15625 47.625 C 54.558594 47.269531 56.371094 45.167969 56.371094 42.734375 C 56.371094 41.589844 55.972656 40.476562 55.246094 39.59375 L 55.199219 39.535156 L 55.1875 39.460938 C 55.183594 39.421875 55.175781 39.382812 55.171875 39.34375 L 55.148438 39.234375 L 55.214844 39.140625 C 55.703125 38.4375 55.964844 37.613281 55.964844 36.753906 C 55.964844 35.144531 55.0625 33.707031 53.613281 33 L 53.476562 32.933594 L 53.464844 32.777344 C 53.363281 31.308594 52.125 30.15625 50.652344 30.15625 C 50.433594 30.15625 50.214844 30.183594 50 30.234375 L 49.742188 30.296875 L 49.671875 30.015625 C 49.574219 29.652344 49.289062 29.527344 49.042969 29.527344 Z M 49.027344 49.78125 C 48.738281 49.78125 48.457031 49.675781 48.234375 49.484375 C 47.976562 49.253906 47.828125 48.925781 47.828125 48.578125 L 47.828125 30.195312 C 47.828125 29.46875 48.371094 29.066406 48.878906 29 C 49.414062 28.929688 49.894531 29.199219 50.113281 29.667969 C 50.292969 29.636719 50.472656 29.621094 50.652344 29.621094 C 52.355469 29.621094 53.789062 30.914062 53.984375 32.585938 C 54.707031 32.96875 55.320312 33.53125 55.761719 34.222656 C 56.246094 34.980469 56.5 35.855469 56.5 36.753906 C 56.5 37.679688 56.234375 38.570312 55.726562 39.335938 C 56.488281 40.300781 56.90625 41.503906 56.90625 42.734375 C 56.90625 44.054688 56.429688 45.332031 55.558594 46.332031 C 54.726562 47.289062 53.582031 47.929688 52.335938 48.136719 C 51.597656 49.027344 50.480469 49.609375 49.175781 49.773438 C 49.125 49.777344 49.078125 49.78125 49.027344 49.78125 " fill-opacity="1" fill-rule="nonzero"/><path fill="#ffffff" d="M 51.910156 48.148438 C 51.386719 48.148438 50.867188 48.027344 50.410156 47.796875 L 50.652344 47.320312 C 51.148438 47.570312 51.734375 47.664062 52.300781 47.585938 L 52.375 48.117188 C 52.21875 48.136719 52.066406 48.148438 51.910156 48.148438 " fill-opacity="1" fill-rule="nonzero"/><path fill="#ffffff" d="M 50.8125 47.136719 C 50.574219 46.992188 50.265625 47.070312 50.121094 47.308594 C 49.980469 47.546875 50.058594 47.855469 50.296875 48 C 50.535156 48.140625 50.84375 48.066406 50.984375 47.824219 C 51.128906 47.585938 51.050781 47.277344 50.8125 47.136719 " fill-opacity="1" fill-rule="nonzero"/><path fill="#ffffff" d="M 53.167969 41.464844 L 52.960938 40.972656 C 53.925781 40.5625 54.726562 39.898438 55.277344 39.042969 L 55.726562 39.335938 C 55.117188 40.277344 54.234375 41.015625 53.167969 41.464844 " fill-opacity="1" fill-rule="nonzero"/><path fill="#ffffff" d="M 52.910156 40.734375 C 52.652344 40.832031 52.519531 41.125 52.617188 41.382812 C 52.714844 41.644531 53.003906 41.777344 53.265625 41.679688 C 53.523438 41.582031 53.65625 41.289062 53.558594 41.03125 C 53.460938 40.769531 53.171875 40.636719 52.910156 40.734375 " fill-opacity="1" fill-rule="nonzero"/><path fill="#ffffff" d="M 54.449219 33.535156 C 53.636719 32.929688 52.652344 32.585938 51.605469 32.542969 L 51.628906 32.007812 C 52.785156 32.054688 53.871094 32.433594 54.769531 33.105469 L 54.449219 33.535156 " fill-opacity="1" fill-rule="nonzero"/><path fill="#ffffff" d="M 51.644531 31.773438 C 51.367188 31.773438 51.140625 32 51.140625 32.277344 C 51.140625 32.554688 51.363281 32.78125 51.640625 32.78125 C 51.917969 32.78125 52.144531 32.554688 52.144531 32.277344 C 52.144531 32 51.921875 31.773438 51.644531 31.773438 " fill-opacity="1" fill-rule="nonzero"/><path fill="#ffffff" d="M 50.835938 35.644531 C 49.976562 35.03125 49.355469 34.09375 49.125 33.074219 C 48.859375 31.882812 49.128906 30.582031 49.847656 29.589844 L 50.28125 29.90625 C 49.648438 30.773438 49.414062 31.914062 49.648438 32.957031 C 49.847656 33.851562 50.394531 34.671875 51.148438 35.210938 L 50.835938 35.644531 " fill-opacity="1" fill-rule="nonzero"/><path fill="#ffffff" d="M 50.703125 35.835938 C 50.9375 35.984375 51.246094 35.917969 51.398438 35.683594 C 51.546875 35.449219 51.476562 35.136719 51.242188 34.988281 C 51.007812 34.839844 50.695312 34.90625 50.546875 35.140625 C 50.398438 35.375 50.46875 35.6875 50.703125 35.835938 " fill-opacity="1" fill-rule="nonzero"/><path fill="#ffffff" d="M 48.167969 44.269531 L 48.019531 43.753906 C 48.824219 43.523438 49.386719 42.777344 49.714844 42.1875 C 49.894531 41.871094 50.050781 41.53125 50.203125 41.203125 C 50.40625 40.761719 50.617188 40.304688 50.890625 39.878906 C 51.394531 39.089844 52.09375 38.425781 52.917969 37.960938 L 53.179688 38.425781 C 52.433594 38.847656 51.796875 39.449219 51.339844 40.167969 C 51.089844 40.5625 50.894531 40.984375 50.6875 41.429688 C 50.53125 41.765625 50.371094 42.117188 50.183594 42.453125 C 49.640625 43.417969 48.941406 44.046875 48.167969 44.269531 " fill-opacity="1" fill-rule="nonzero"/><path fill="#ffffff" d="M 52.796875 37.761719 C 53.042969 37.632812 53.347656 37.730469 53.476562 37.976562 C 53.601562 38.222656 53.507812 38.527344 53.257812 38.65625 C 53.011719 38.78125 52.710938 38.6875 52.582031 38.4375 C 52.453125 38.191406 52.550781 37.886719 52.796875 37.761719 " fill-opacity="1" fill-rule="nonzero"/><path fill="#ffffff" d="M 49.816406 50.769531 L 44.921875 50.769531 C 44.773438 50.769531 44.652344 50.652344 44.652344 50.503906 C 44.652344 50.355469 44.773438 50.234375 44.921875 50.234375 L 49.816406 50.234375 C 49.964844 50.234375 50.082031 50.355469 50.082031 50.503906 C 50.082031 50.652344 49.964844 50.769531 49.816406 50.769531 " fill-opacity="1" fill-rule="nonzero"/><path fill="#ffffff" d="M 49.816406 51.824219 L 44.921875 51.824219 C 44.773438 51.824219 44.652344 51.707031 44.652344 51.558594 C 44.652344 51.410156 44.773438 51.289062 44.921875 51.289062 L 49.816406 51.289062 C 49.964844 51.289062 50.082031 51.410156 50.082031 51.558594 C 50.082031 51.707031 49.964844 51.824219 49.816406 51.824219 " fill-opacity="1" fill-rule="nonzero"/><path fill="#ffffff" d="M 49.816406 52.878906 L 44.921875 52.878906 C 44.773438 52.878906 44.652344 52.761719 44.652344 52.613281 C 44.652344 52.464844 44.773438 52.34375 44.921875 52.34375 L 49.816406 52.34375 C 49.964844 52.34375 50.082031 52.464844 50.082031 52.613281 C 50.082031 52.761719 49.964844 52.878906 49.816406 52.878906 " fill-opacity="1" fill-rule="nonzero"/><path fill="#ffffff" d="M 49.816406 53.9375 L 44.921875 53.9375 C 44.773438 53.9375 44.652344 53.816406 44.652344 53.667969 C 44.652344 53.519531 44.773438 53.398438 44.921875 53.398438 L 49.816406 53.398438 C 49.964844 53.398438 50.082031 53.519531 50.082031 53.667969 C 50.082031 53.816406 49.964844 53.9375 49.816406 53.9375 " fill-opacity="1" fill-rule="nonzero"/><g clip-path="url(#9d6a145a4e)"><path fill="#ffffff" d="M 47.367188 55.785156 C 46.289062 55.785156 45.410156 54.90625 45.410156 53.828125 L 45.414062 53.792969 L 45.949219 53.800781 L 45.945312 53.828125 C 45.945312 54.609375 46.585938 55.25 47.367188 55.25 C 48.152344 55.25 48.789062 54.609375 48.789062 53.828125 C 48.789062 53.78125 48.785156 53.738281 48.78125 53.691406 L 49.316406 53.644531 C 49.320312 53.703125 49.324219 53.765625 49.324219 53.828125 C 49.324219 54.90625 48.445312 55.785156 47.367188 55.785156 " fill-opacity="1" fill-rule="nonzero"/></g><path fill="#ffffff" d="M 47.367188 26.394531 C 47.21875 26.394531 47.101562 26.273438 47.101562 26.125 L 47.101562 24.273438 C 47.101562 24.125 47.21875 24.007812 47.367188 24.007812 C 47.515625 24.007812 47.636719 24.125 47.636719 24.273438 L 47.636719 26.125 C 47.636719 26.273438 47.515625 26.394531 47.367188 26.394531 " fill-opacity="1" fill-rule="nonzero"/><g clip-path="url(#cc12b9c33c)"><path fill="#ffffff" d="M 47.367188 21.285156 C 47.21875 21.285156 47.101562 21.164062 47.101562 21.015625 L 47.101562 19.300781 C 47.101562 19.152344 47.21875 19.035156 47.367188 19.035156 C 47.515625 19.035156 47.636719 19.152344 47.636719 19.300781 L 47.636719 21.015625 C 47.636719 21.164062 47.515625 21.285156 47.367188 21.285156 " fill-opacity="1" fill-rule="nonzero"/></g><path fill="#ffffff" d="M 56.652344 30.296875 C 56.585938 30.296875 56.515625 30.273438 56.464844 30.21875 C 56.359375 30.117188 56.359375 29.945312 56.464844 29.839844 L 58.9375 27.371094 C 59.039062 27.265625 59.210938 27.265625 59.3125 27.371094 C 59.417969 27.472656 59.417969 27.644531 59.3125 27.746094 L 56.84375 30.21875 C 56.792969 30.273438 56.722656 30.296875 56.652344 30.296875 " fill-opacity="1" fill-rule="nonzero"/><path fill="#ffffff" d="M 59.960938 26.992188 C 59.890625 26.992188 59.824219 26.964844 59.769531 26.914062 C 59.664062 26.808594 59.664062 26.640625 59.769531 26.535156 L 61.289062 25.015625 C 61.394531 24.910156 61.5625 24.910156 61.667969 25.015625 C 61.769531 25.121094 61.769531 25.289062 61.667969 25.394531 L 60.148438 26.914062 C 60.097656 26.964844 60.027344 26.992188 59.960938 26.992188 " fill-opacity="1" fill-rule="nonzero"/><path fill="#ffffff" d="M 62.753906 39.628906 L 60.460938 39.628906 C 60.3125 39.628906 60.195312 39.511719 60.195312 39.363281 C 60.195312 39.214844 60.3125 39.09375 60.460938 39.09375 L 62.753906 39.09375 C 62.902344 39.09375 63.019531 39.214844 63.019531 39.363281 C 63.019531 39.511719 62.902344 39.628906 62.753906 39.628906 " fill-opacity="1" fill-rule="nonzero"/><g clip-path="url(#9c0442da75)"><path fill="#ffffff" d="M 67.28125 39.628906 L 64.578125 39.628906 C 64.433594 39.628906 64.3125 39.511719 64.3125 39.363281 C 64.3125 39.214844 64.433594 39.09375 64.578125 39.09375 L 67.28125 39.09375 C 67.429688 39.09375 67.550781 39.214844 67.550781 39.363281 C 67.550781 39.511719 67.429688 39.628906 67.28125 39.628906 " fill-opacity="1" fill-rule="nonzero"/></g><path fill="#ffffff" d="M 57.796875 50.160156 C 57.730469 50.160156 57.660156 50.136719 57.609375 50.082031 L 56.371094 48.84375 C 56.265625 48.738281 56.265625 48.570312 56.371094 48.464844 C 56.472656 48.359375 56.644531 48.359375 56.75 48.464844 L 57.988281 49.703125 C 58.09375 49.808594 58.09375 49.980469 57.988281 50.082031 C 57.9375 50.136719 57.867188 50.160156 57.796875 50.160156 " fill-opacity="1" fill-rule="nonzero"/><path fill="#ffffff" d="M 61.191406 53.667969 L 58.683594 51.15625 C 58.578125 51.050781 58.578125 50.882812 58.683594 50.777344 C 58.785156 50.671875 58.957031 50.671875 59.058594 50.777344 L 61.570312 53.289062 L 61.191406 53.667969 " fill-opacity="1" fill-rule="nonzero"/><path fill="#ffffff" d="M 37.347656 49.425781 C 37.277344 49.425781 37.210938 49.402344 37.15625 49.347656 C 37.050781 49.242188 37.050781 49.074219 37.15625 48.96875 L 37.757812 48.371094 C 37.863281 48.265625 38.03125 48.265625 38.136719 48.371094 C 38.242188 48.472656 38.242188 48.644531 38.136719 48.746094 L 37.535156 49.347656 C 37.484375 49.402344 37.414062 49.425781 37.347656 49.425781 " fill-opacity="1" fill-rule="nonzero"/><path fill="#ffffff" d="M 33.125 53.652344 C 33.054688 53.652344 32.988281 53.625 32.933594 53.574219 C 32.828125 53.46875 32.828125 53.300781 32.933594 53.195312 L 35.132812 50.996094 C 35.234375 50.890625 35.40625 50.890625 35.511719 50.996094 C 35.613281 51.101562 35.613281 51.269531 35.511719 51.375 L 33.3125 53.574219 C 33.261719 53.625 33.191406 53.652344 33.125 53.652344 " fill-opacity="1" fill-rule="nonzero"/><path fill="#ffffff" d="M 34.140625 39.496094 L 31.695312 39.496094 C 31.550781 39.496094 31.429688 39.375 31.429688 39.226562 C 31.429688 39.078125 31.550781 38.960938 31.695312 38.960938 L 34.140625 38.960938 C 34.289062 38.960938 34.40625 39.078125 34.40625 39.226562 C 34.40625 39.375 34.289062 39.496094 34.140625 39.496094 " fill-opacity="1" fill-rule="nonzero"/><g clip-path="url(#0463d17bfe)"><path fill="#ffffff" d="M 29.949219 39.496094 L 27.316406 39.496094 C 27.171875 39.496094 27.050781 39.375 27.050781 39.226562 C 27.050781 39.078125 27.171875 38.960938 27.316406 38.960938 L 29.949219 38.960938 C 30.097656 38.960938 30.214844 39.078125 30.214844 39.226562 C 30.214844 39.375 30.097656 39.496094 29.949219 39.496094 " fill-opacity="1" fill-rule="nonzero"/></g><path fill="#ffffff" d="M 38.042969 30.203125 C 37.972656 30.203125 37.90625 30.175781 37.851562 30.125 L 36.496094 28.769531 C 36.394531 28.664062 36.394531 28.496094 36.496094 28.390625 C 36.601562 28.285156 36.773438 28.285156 36.875 28.390625 L 38.230469 29.746094 C 38.335938 29.851562 38.335938 30.019531 38.230469 30.125 C 38.179688 30.175781 38.109375 30.203125 38.042969 30.203125 " fill-opacity="1" fill-rule="nonzero"/><path fill="#ffffff" d="M 35.21875 27.378906 C 35.148438 27.378906 35.082031 27.351562 35.027344 27.300781 L 33.027344 25.300781 C 32.925781 25.195312 32.925781 25.023438 33.027344 24.921875 C 33.132812 24.816406 33.304688 24.816406 33.40625 24.921875 L 35.40625 26.921875 C 35.511719 27.023438 35.511719 27.195312 35.40625 27.300781 C 35.355469 27.351562 35.285156 27.378906 35.21875 27.378906 " fill-opacity="1" fill-rule="nonzero"/><path fill="#ffffff" d="M 43.035156 27.886719 C 42.949219 27.886719 42.859375 27.839844 42.808594 27.761719 L 42.03125 26.527344 C 41.953125 26.402344 41.992188 26.234375 42.117188 26.15625 C 42.242188 26.078125 42.40625 26.117188 42.484375 26.242188 L 43.261719 27.476562 C 43.339844 27.601562 43.304688 27.765625 43.179688 27.84375 C 43.132812 27.871094 43.085938 27.886719 43.035156 27.886719 " fill-opacity="1" fill-rule="nonzero"/><path fill="#ffffff" d="M 41.371094 25.234375 C 41.28125 25.234375 41.195312 25.191406 41.144531 25.109375 L 40.050781 23.378906 C 39.972656 23.253906 40.011719 23.089844 40.136719 23.007812 C 40.261719 22.929688 40.425781 22.96875 40.503906 23.09375 L 41.59375 24.824219 C 41.675781 24.949219 41.636719 25.117188 41.511719 25.195312 C 41.46875 25.222656 41.417969 25.234375 41.371094 25.234375 " fill-opacity="1" fill-rule="nonzero"/><path fill="#ffffff" d="M 51.820312 27.886719 C 51.773438 27.886719 51.722656 27.871094 51.679688 27.84375 C 51.554688 27.765625 51.515625 27.601562 51.59375 27.476562 L 52.476562 26.074219 C 52.554688 25.945312 52.722656 25.910156 52.847656 25.988281 C 52.972656 26.066406 53.007812 26.234375 52.929688 26.359375 L 52.046875 27.761719 C 51.996094 27.839844 51.910156 27.886719 51.820312 27.886719 " fill-opacity="1" fill-rule="nonzero"/><path fill="#ffffff" d="M 53.714844 24.875 C 53.664062 24.875 53.617188 24.863281 53.570312 24.835938 C 53.445312 24.757812 53.410156 24.589844 53.488281 24.464844 L 54.351562 23.09375 C 54.429688 22.96875 54.597656 22.929688 54.722656 23.007812 C 54.847656 23.089844 54.882812 23.253906 54.804688 23.378906 L 53.941406 24.75 C 53.890625 24.832031 53.804688 24.875 53.714844 24.875 " fill-opacity="1" fill-rule="nonzero"/><path fill="#ffffff" d="M 35.519531 34.730469 L 33.199219 33.667969 C 33.066406 33.605469 33.003906 33.445312 33.066406 33.3125 C 33.128906 33.179688 33.289062 33.121094 33.421875 33.179688 L 35.742188 34.242188 L 35.519531 34.730469 " fill-opacity="1" fill-rule="nonzero"/><path fill="#ffffff" d="M 31.71875 32.964844 C 31.683594 32.964844 31.644531 32.957031 31.609375 32.941406 L 29.535156 31.992188 C 29.398438 31.929688 29.339844 31.769531 29.402344 31.636719 C 29.464844 31.5 29.621094 31.441406 29.757812 31.503906 L 31.832031 32.453125 C 31.964844 32.515625 32.023438 32.671875 31.964844 32.808594 C 31.917969 32.90625 31.820312 32.964844 31.71875 32.964844 " fill-opacity="1" fill-rule="nonzero"/><path fill="#ffffff" d="M 59.082031 34.730469 L 58.859375 34.242188 L 61.25 33.148438 C 61.386719 33.085938 61.542969 33.144531 61.605469 33.28125 C 61.667969 33.414062 61.609375 33.574219 61.472656 33.632812 L 59.082031 34.730469 " fill-opacity="1" fill-rule="nonzero"/><path fill="#ffffff" d="M 64.019531 32.441406 C 63.917969 32.441406 63.820312 32.386719 63.777344 32.285156 C 63.714844 32.152344 63.773438 31.992188 63.90625 31.933594 L 64.84375 31.503906 C 64.976562 31.441406 65.136719 31.5 65.199219 31.636719 C 65.261719 31.769531 65.199219 31.929688 65.066406 31.992188 L 64.128906 32.417969 C 64.09375 32.433594 64.054688 32.441406 64.019531 32.441406 " fill-opacity="1" fill-rule="nonzero"/><path fill="#ffffff" d="M 33.945312 44.914062 C 33.851562 44.914062 33.757812 44.863281 33.710938 44.773438 C 33.640625 44.644531 33.691406 44.480469 33.820312 44.410156 L 35.410156 43.566406 C 35.539062 43.5 35.703125 43.546875 35.769531 43.679688 C 35.839844 43.808594 35.789062 43.972656 35.660156 44.039062 L 34.070312 44.882812 C 34.03125 44.90625 33.988281 44.914062 33.945312 44.914062 " fill-opacity="1" fill-rule="nonzero"/><path fill="#ffffff" d="M 30.253906 46.914062 L 30 46.441406 L 32.355469 45.1875 C 32.488281 45.121094 32.648438 45.167969 32.71875 45.300781 C 32.789062 45.429688 32.738281 45.59375 32.609375 45.664062 L 30.253906 46.914062 " fill-opacity="1" fill-rule="nonzero"/><path fill="#ffffff" d="M 60.347656 44.648438 C 60.304688 44.648438 60.261719 44.640625 60.222656 44.617188 L 59.132812 44.039062 C 59.003906 43.972656 58.953125 43.808594 59.023438 43.679688 C 59.09375 43.546875 59.253906 43.5 59.382812 43.566406 L 60.472656 44.144531 C 60.601562 44.214844 60.652344 44.378906 60.582031 44.507812 C 60.535156 44.597656 60.441406 44.648438 60.347656 44.648438 " fill-opacity="1" fill-rule="nonzero"/><path fill="#ffffff" d="M 64.667969 46.945312 C 64.625 46.945312 64.582031 46.933594 64.542969 46.914062 L 61.914062 45.515625 C 61.785156 45.449219 61.734375 45.285156 61.804688 45.15625 C 61.871094 45.023438 62.035156 44.976562 62.164062 45.042969 L 64.792969 46.441406 C 64.921875 46.511719 64.972656 46.671875 64.902344 46.800781 C 64.855469 46.894531 64.761719 46.945312 64.667969 46.945312 " fill-opacity="1" fill-rule="nonzero"/><g fill="#ffffff" fill-opacity="1"><g transform="translate(3.29516, 54.172125)"><g><path d="M 8.25 -0.453125 L 8.46875 -0.453125 L 8.46875 0 L 2.0625 0 L 2.0625 -0.453125 L 2.28125 -0.453125 C 2.519531 -0.453125 2.726562 -0.53125 2.90625 -0.6875 C 3.09375 -0.851562 3.253906 -1.054688 3.390625 -1.296875 C 3.523438 -1.535156 3.617188 -1.789062 3.671875 -2.0625 C 3.734375 -2.332031 3.765625 -2.585938 3.765625 -2.828125 L 3.765625 -26.8125 C 3.765625 -27.019531 3.734375 -27.257812 3.671875 -27.53125 C 3.617188 -27.800781 3.53125 -28.054688 3.40625 -28.296875 C 3.289062 -28.535156 3.132812 -28.734375 2.9375 -28.890625 C 2.738281 -29.054688 2.519531 -29.140625 2.28125 -29.140625 L 2.0625 -29.140625 L 2.0625 -29.59375 L 19.28125 -29.59375 L 19.28125 -25.421875 L 18.828125 -25.421875 C 18.828125 -26.109375 18.59375 -26.710938 18.125 -27.234375 C 17.664062 -27.765625 16.945312 -28.03125 15.96875 -28.03125 L 6.765625 -28.03125 L 6.765625 -16.6875 L 14.21875 -16.6875 C 14.90625 -16.6875 15.476562 -16.894531 15.9375 -17.3125 C 16.40625 -17.726562 16.640625 -18.222656 16.640625 -18.796875 L 17.078125 -18.796875 L 17.078125 -13.1875 L 16.640625 -13.1875 C 16.640625 -13.71875 16.414062 -14.175781 15.96875 -14.5625 C 15.519531 -14.957031 14.9375 -15.15625 14.21875 -15.15625 L 6.765625 -15.15625 L 6.765625 -2.828125 C 6.765625 -2.585938 6.796875 -2.332031 6.859375 -2.0625 C 6.921875 -1.789062 7.019531 -1.535156 7.15625 -1.296875 C 7.289062 -1.054688 7.445312 -0.851562 7.625 -0.6875 C 7.800781 -0.53125 8.007812 -0.453125 8.25 -0.453125 Z M 8.25 -0.453125 "/></g></g></g><g fill="#ffffff" fill-opacity="1"><g transform="translate(23.941874, 54.172125)"><g/></g></g><g fill="#ffffff" fill-opacity="1"><g transform="translate(35.599188, 54.172125)"><g/></g></g><g fill="#ffffff" fill-opacity="1"><g transform="translate(47.256502, 54.172125)"><g/></g></g><g fill="#ffffff" fill-opacity="1"><g transform="translate(58.913816, 54.172125)"><g/></g></g><g fill="#ffffff" fill-opacity="1"><g transform="translate(70.574095, 54.172125)"><g><path d="M 17.796875 -28.4375 C 15.585938 -28.4375 13.664062 -28.035156 12.03125 -27.234375 C 10.40625 -26.441406 9.054688 -25.410156 7.984375 -24.140625 C 6.910156 -22.878906 6.109375 -21.453125 5.578125 -19.859375 C 5.054688 -18.273438 4.796875 -16.707031 4.796875 -15.15625 C 4.796875 -13.394531 5.140625 -11.664062 5.828125 -9.96875 C 6.515625 -8.28125 7.460938 -6.785156 8.671875 -5.484375 C 9.890625 -4.191406 11.304688 -3.148438 12.921875 -2.359375 C 14.535156 -1.566406 16.28125 -1.171875 18.15625 -1.171875 C 18.695312 -1.171875 19.332031 -1.226562 20.0625 -1.34375 C 20.800781 -1.46875 21.523438 -1.703125 22.234375 -2.046875 C 22.953125 -2.390625 23.617188 -2.875 24.234375 -3.5 C 24.847656 -4.125 25.320312 -4.945312 25.65625 -5.96875 L 26.09375 -5.96875 L 26.09375 -0.984375 C 25.644531 -0.984375 25.175781 -0.921875 24.6875 -0.796875 C 24.195312 -0.679688 23.648438 -0.550781 23.046875 -0.40625 C 22.273438 -0.195312 21.414062 -0.00390625 20.46875 0.171875 C 19.53125 0.359375 18.535156 0.453125 17.484375 0.453125 C 14.890625 0.453125 12.601562 0.00390625 10.625 -0.890625 C 8.65625 -1.785156 7.007812 -2.953125 5.6875 -4.390625 C 4.375 -5.828125 3.390625 -7.445312 2.734375 -9.25 C 2.078125 -11.0625 1.75 -12.894531 1.75 -14.75 C 1.75 -16.601562 2.078125 -18.441406 2.734375 -20.265625 C 3.390625 -22.085938 4.390625 -23.722656 5.734375 -25.171875 C 7.085938 -26.628906 8.78125 -27.804688 10.8125 -28.703125 C 12.84375 -29.597656 15.234375 -30.046875 17.984375 -30.046875 C 18.972656 -30.046875 19.863281 -29.953125 20.65625 -29.765625 C 21.445312 -29.585938 22.15625 -29.410156 22.78125 -29.234375 C 23.226562 -29.085938 23.640625 -28.976562 24.015625 -28.90625 C 24.390625 -28.832031 24.753906 -28.796875 25.109375 -28.796875 L 25.109375 -23.8125 L 24.65625 -23.8125 C 24.476562 -24.738281 24.148438 -25.507812 23.671875 -26.125 C 23.191406 -26.738281 22.628906 -27.207031 21.984375 -27.53125 C 21.347656 -27.863281 20.660156 -28.097656 19.921875 -28.234375 C 19.191406 -28.367188 18.484375 -28.4375 17.796875 -28.4375 Z M 17.796875 -28.4375 "/></g></g></g><g fill="#ffffff" fill-opacity="1"><g transform="translate(98.506822, 54.172125)"><g><path d="M 2.015625 -29.59375 L 8.390625 -29.59375 L 8.390625 -29.140625 L 8.15625 -29.140625 C 7.914062 -29.140625 7.707031 -29.054688 7.53125 -28.890625 C 7.351562 -28.734375 7.195312 -28.535156 7.0625 -28.296875 C 6.925781 -28.054688 6.828125 -27.800781 6.765625 -27.53125 C 6.710938 -27.257812 6.6875 -27.019531 6.6875 -26.8125 L 6.6875 -9.109375 C 6.6875 -7.941406 6.804688 -6.863281 7.046875 -5.875 C 7.285156 -4.882812 7.6875 -4.03125 8.25 -3.3125 C 8.820312 -2.59375 9.570312 -2.03125 10.5 -1.625 C 11.425781 -1.226562 12.5625 -1.03125 13.90625 -1.03125 C 15.394531 -1.03125 16.585938 -1.269531 17.484375 -1.75 C 18.378906 -2.226562 19.066406 -2.847656 19.546875 -3.609375 C 20.023438 -4.367188 20.335938 -5.226562 20.484375 -6.1875 C 20.640625 -7.144531 20.71875 -8.085938 20.71875 -9.015625 L 20.71875 -26.8125 C 20.71875 -27.019531 20.6875 -27.257812 20.625 -27.53125 C 20.5625 -27.800781 20.460938 -28.054688 20.328125 -28.296875 C 20.203125 -28.535156 20.046875 -28.734375 19.859375 -28.890625 C 19.679688 -29.054688 19.488281 -29.140625 19.28125 -29.140625 L 19.0625 -29.140625 L 19.0625 -29.59375 L 23.953125 -29.59375 L 23.953125 -29.140625 L 23.71875 -29.140625 C 23.476562 -29.140625 23.273438 -29.054688 23.109375 -28.890625 C 22.953125 -28.734375 22.804688 -28.535156 22.671875 -28.296875 C 22.535156 -28.054688 22.4375 -27.800781 22.375 -27.53125 C 22.3125 -27.257812 22.28125 -27.019531 22.28125 -26.8125 L 22.28125 -9.140625 C 22.28125 -7.203125 22.039062 -5.613281 21.5625 -4.375 C 21.09375 -3.132812 20.4375 -2.15625 19.59375 -1.4375 C 18.757812 -0.71875 17.78125 -0.222656 16.65625 0.046875 C 15.539062 0.316406 14.351562 0.453125 13.09375 0.453125 C 11.75 0.453125 10.5 0.304688 9.34375 0.015625 C 8.195312 -0.265625 7.203125 -0.765625 6.359375 -1.484375 C 5.523438 -2.203125 4.867188 -3.179688 4.390625 -4.421875 C 3.910156 -5.660156 3.671875 -7.222656 3.671875 -9.109375 L 3.671875 -26.8125 C 3.671875 -27.019531 3.640625 -27.257812 3.578125 -27.53125 C 3.523438 -27.800781 3.429688 -28.054688 3.296875 -28.296875 C 3.160156 -28.535156 3.003906 -28.734375 2.828125 -28.890625 C 2.648438 -29.054688 2.453125 -29.140625 2.234375 -29.140625 L 2.015625 -29.140625 Z M 2.015625 -29.59375 "/></g></g></g><g fill="#ffffff" fill-opacity="1"><g transform="translate(124.690943, 54.172125)"><g><path d="M 20.171875 -7.9375 C 20.171875 -6.4375 19.875 -5.15625 19.28125 -4.09375 C 18.6875 -3.039062 17.914062 -2.179688 16.96875 -1.515625 C 16.03125 -0.859375 14.96875 -0.378906 13.78125 -0.078125 C 12.601562 0.210938 11.429688 0.359375 10.265625 0.359375 C 9.066406 0.359375 8.035156 0.238281 7.171875 0 C 6.304688 -0.238281 5.515625 -0.460938 4.796875 -0.671875 C 4.316406 -0.816406 3.882812 -0.941406 3.5 -1.046875 C 3.113281 -1.148438 2.722656 -1.203125 2.328125 -1.203125 L 2.328125 -6.328125 L 2.78125 -6.328125 C 2.78125 -5.191406 3.070312 -4.285156 3.65625 -3.609375 C 4.238281 -2.929688 4.914062 -2.414062 5.6875 -2.0625 C 6.46875 -1.707031 7.242188 -1.472656 8.015625 -1.359375 C 8.796875 -1.253906 9.367188 -1.203125 9.734375 -1.203125 C 11.015625 -1.203125 12.117188 -1.390625 13.046875 -1.765625 C 13.972656 -2.140625 14.734375 -2.632812 15.328125 -3.25 C 15.929688 -3.863281 16.375 -4.539062 16.65625 -5.28125 C 16.9375 -6.03125 17.078125 -6.796875 17.078125 -7.578125 C 17.078125 -8.566406 16.867188 -9.394531 16.453125 -10.0625 C 16.035156 -10.738281 15.488281 -11.328125 14.8125 -11.828125 C 14.144531 -12.335938 13.375 -12.769531 12.5 -13.125 C 11.632812 -13.488281 10.753906 -13.851562 9.859375 -14.21875 C 8.847656 -14.601562 7.847656 -15.003906 6.859375 -15.421875 C 5.867188 -15.835938 4.984375 -16.351562 4.203125 -16.96875 C 3.429688 -17.582031 2.804688 -18.316406 2.328125 -19.171875 C 1.847656 -20.023438 1.609375 -21.078125 1.609375 -22.328125 C 1.609375 -23.648438 1.863281 -24.796875 2.375 -25.765625 C 2.882812 -26.734375 3.5625 -27.53125 4.40625 -28.15625 C 5.257812 -28.789062 6.234375 -29.265625 7.328125 -29.578125 C 8.421875 -29.890625 9.535156 -30.046875 10.671875 -30.046875 C 11.453125 -30.046875 12.1875 -29.992188 12.875 -29.890625 C 13.5625 -29.785156 14.21875 -29.65625 14.84375 -29.5 C 15.351562 -29.382812 15.847656 -29.289062 16.328125 -29.21875 C 16.804688 -29.144531 17.269531 -29.109375 17.71875 -29.109375 L 17.71875 -24.484375 L 17.265625 -24.484375 C 17.203125 -26.035156 16.585938 -27.085938 15.421875 -27.640625 C 14.253906 -28.191406 12.640625 -28.46875 10.578125 -28.46875 C 9.390625 -28.46875 8.410156 -28.265625 7.640625 -27.859375 C 6.878906 -27.460938 6.273438 -26.972656 5.828125 -26.390625 C 5.378906 -25.804688 5.070312 -25.175781 4.90625 -24.5 C 4.738281 -23.832031 4.65625 -23.242188 4.65625 -22.734375 C 4.65625 -21.898438 4.84375 -21.179688 5.21875 -20.578125 C 5.59375 -19.984375 6.09375 -19.460938 6.71875 -19.015625 C 7.351562 -18.566406 8.082031 -18.160156 8.90625 -17.796875 C 9.726562 -17.441406 10.585938 -17.097656 11.484375 -16.765625 C 12.492188 -16.378906 13.519531 -15.960938 14.5625 -15.515625 C 15.613281 -15.066406 16.550781 -14.515625 17.375 -13.859375 C 18.195312 -13.203125 18.867188 -12.394531 19.390625 -11.4375 C 19.910156 -10.476562 20.171875 -9.3125 20.171875 -7.9375 Z M 20.171875 -7.9375 "/></g></g></g></svg>