<svg xmlns="http://www.w3.org/2000/svg" xmlns:xlink="http://www.w3.org/1999/xlink" width="200" zoomAndPan="magnify" viewBox="0 0 150 74.999997" height="100" preserveAspectRatio="xMidYMid meet" version="1.0"><defs><g/><clipPath id="42f31b387b"><path d="M 31.542969 19.019531 L 67.542969 19.019531 L 67.542969 47.519531 L 31.542969 47.519531 Z M 31.542969 19.019531 " clip-rule="nonzero"/></clipPath></defs><g clip-path="url(#42f31b387b)"><path fill="#ffffff" d="M 64.757812 29.601562 C 65.105469 27.691406 64.0625 26.179688 62.71875 25.460938 C 62.140625 25.152344 61.453125 24.96875 60.746094 24.960938 C 60.246094 23.527344 59.195312 22.273438 57.875 21.539062 C 56.753906 20.917969 55.511719 20.734375 54.351562 21.011719 C 51.300781 19.03125 44.976562 19.109375 42.632812 20.910156 C 42.089844 21.324219 41.761719 21.824219 41.648438 22.375 C 40.390625 22.230469 39.058594 22.308594 37.929688 22.585938 C 36.238281 23.007812 35.023438 23.875 34.421875 25.09375 C 34.214844 25.507812 34.09375 25.945312 34.042969 26.378906 C 32.59375 26.570312 31.671875 27.683594 31.609375 29.371094 C 31.542969 30.941406 32.230469 32.644531 33.429688 33.65625 C 33.371094 35.402344 33.929688 36.875 35.039062 37.929688 C 36.046875 38.886719 37.417969 39.390625 38.953125 39.390625 C 39.082031 39.390625 39.21875 39.386719 39.347656 39.378906 C 39.417969 39.71875 39.53125 39.996094 39.652344 40.21875 C 40.554688 41.929688 42.804688 42.796875 44.785156 42.796875 C 44.976562 42.796875 45.164062 42.792969 45.347656 42.769531 C 47.898438 43.933594 49.871094 45.457031 51.214844 47.308594 C 51.308594 47.4375 51.457031 47.507812 51.609375 47.507812 C 51.644531 47.507812 51.671875 47.507812 51.707031 47.503906 L 54.832031 46.847656 C 55.066406 46.796875 55.230469 46.589844 55.21875 46.347656 C 55.179688 45.527344 54.925781 44.109375 54.558594 43.054688 C 55.246094 43.199219 55.953125 43.269531 56.660156 43.269531 C 57.246094 43.269531 57.824219 43.21875 58.390625 43.125 C 61.167969 42.648438 62.957031 41.101562 63.175781 39.042969 C 63.398438 39.007812 63.605469 38.949219 63.796875 38.871094 C 65.890625 37.996094 66.144531 36.910156 66.058594 36.25 C 66.734375 35.933594 67.171875 35.367188 67.292969 34.601562 C 67.542969 33.050781 66.378906 30.789062 64.757812 29.601562 Z M 54.214844 45.992188 L 51.824219 46.488281 C 50.59375 44.886719 48.929688 43.527344 46.855469 42.429688 C 47.914062 42.007812 48.65625 41.246094 48.964844 40.238281 C 49.328125 40.21875 49.691406 40.148438 50.050781 40.046875 C 50.671875 41.324219 51.902344 42.214844 53.378906 42.734375 C 53.722656 43.390625 54.101562 44.945312 54.214844 45.992188 Z M 58.226562 42.179688 C 57.726562 42.265625 57.210938 42.308594 56.683594 42.308594 C 54.316406 42.308594 51.871094 41.4375 50.964844 39.707031 C 51.351562 39.527344 51.707031 39.3125 52.03125 39.085938 C 52.832031 39.40625 53.730469 39.578125 54.632812 39.578125 C 56.273438 39.578125 57.902344 39.015625 58.890625 37.800781 C 59.855469 38.507812 61.082031 38.984375 62.183594 39.078125 C 61.871094 41.367188 59.109375 42.023438 58.226562 42.179688 Z M 66.328125 34.460938 C 66.265625 34.878906 66.050781 35.179688 65.683594 35.359375 C 65.292969 34.816406 64.628906 34.359375 63.839844 34.054688 C 63.820312 32.605469 63.140625 30.859375 61.613281 30.113281 C 61.371094 29.992188 61.078125 30.089844 60.960938 30.332031 C 60.839844 30.574219 60.941406 30.867188 61.183594 30.980469 C 62.25 31.503906 62.761719 32.691406 62.855469 33.769531 C 62.382812 33.675781 61.898438 33.640625 61.414062 33.675781 C 61.140625 33.691406 60.941406 33.925781 60.953125 34.195312 C 60.96875 34.46875 61.203125 34.667969 61.476562 34.652344 C 62.082031 34.617188 62.683594 34.703125 63.210938 34.867188 C 63.21875 34.867188 63.21875 34.867188 63.226562 34.875 C 64.121094 35.152344 64.8125 35.648438 65.035156 36.148438 C 65.035156 36.148438 65.035156 36.15625 65.035156 36.15625 C 65.054688 36.207031 65.070312 36.257812 65.085938 36.304688 C 65.222656 36.875 64.613281 37.488281 63.425781 37.988281 C 63.226562 38.074219 62.992188 38.117188 62.734375 38.128906 C 62.726562 38.128906 62.71875 38.128906 62.710938 38.128906 C 62.707031 38.128906 62.699219 38.128906 62.683594 38.128906 C 61.296875 38.171875 59.3125 37.246094 58.511719 36.054688 C 57.976562 35.265625 58.054688 34.546875 58.746094 33.847656 C 58.941406 33.65625 58.933594 33.347656 58.746094 33.15625 C 58.554688 32.964844 58.246094 32.96875 58.054688 33.15625 C 57.039062 34.175781 56.917969 35.429688 57.703125 36.589844 C 57.839844 36.789062 57.988281 36.976562 58.160156 37.152344 C 57.039062 38.566406 54.714844 38.886719 52.878906 38.335938 C 52.902344 38.308594 52.929688 38.289062 52.953125 38.257812 C 53.128906 38.058594 53.109375 37.746094 52.910156 37.574219 C 52.707031 37.402344 52.394531 37.417969 52.222656 37.617188 C 51.773438 38.128906 51.015625 38.65625 50.179688 38.980469 C 50.179688 38.980469 50.171875 38.980469 50.171875 38.980469 C 50.171875 38.980469 50.164062 38.980469 50.164062 38.980469 C 49.671875 39.164062 49.148438 39.269531 48.648438 39.261719 C 47.90625 39.25 47.320312 38.980469 46.890625 38.449219 C 46.71875 38.246094 46.414062 38.207031 46.207031 38.378906 C 46 38.550781 45.964844 38.855469 46.132812 39.0625 C 46.605469 39.640625 47.226562 40.019531 47.964844 40.160156 C 47.492188 41.292969 46.300781 41.652344 45.570312 41.757812 C 43.535156 42.066406 41.269531 41.167969 40.523438 39.753906 C 39.933594 38.628906 40.332031 37.269531 41.691406 35.8125 C 43.183594 34.210938 50.292969 29.890625 54.09375 29.792969 C 54.367188 29.785156 54.582031 29.5625 54.574219 29.292969 C 54.566406 29.023438 54.34375 28.808594 54.074219 28.816406 C 52.816406 28.851562 51.324219 29.277344 49.9375 29.820312 C 49.535156 28.625 49.734375 27.199219 50.929688 26.59375 C 51.171875 26.472656 51.265625 26.179688 51.144531 25.9375 C 51.023438 25.695312 50.730469 25.601562 50.488281 25.722656 C 48.769531 26.59375 48.472656 28.574219 49.027344 30.191406 C 48.09375 30.589844 47.25 31.019531 46.613281 31.351562 C 45.261719 32.066406 43.949219 32.863281 42.890625 33.597656 C 42.910156 32.847656 43.21875 32.074219 43.539062 31.265625 C 44.035156 30.027344 44.578125 28.644531 44.105469 27.191406 C 45.035156 27.121094 45.949219 27 46.699219 26.59375 C 47.8125 25.992188 48.328125 24.910156 48.277344 23.285156 C 48.269531 23.015625 48.050781 22.808594 47.769531 22.816406 C 47.5 22.820312 47.292969 23.050781 47.300781 23.320312 C 47.386719 25.886719 45.878906 26.109375 43.40625 26.265625 C 41.71875 26.371094 39.8125 26.484375 39.269531 28.238281 C 39.1875 28.496094 39.332031 28.765625 39.589844 28.851562 C 39.640625 28.867188 39.6875 28.871094 39.730469 28.871094 C 39.9375 28.871094 40.132812 28.738281 40.195312 28.53125 C 40.496094 27.570312 41.488281 27.375 43.082031 27.269531 C 43.597656 28.480469 43.125 29.664062 42.625 30.917969 C 42.199219 32 41.753906 33.121094 41.953125 34.289062 C 41.539062 34.609375 41.203125 34.910156 40.96875 35.160156 C 39.796875 36.414062 39.367188 37.511719 39.296875 38.402344 C 37.875 38.480469 36.609375 38.066406 35.714844 37.21875 C 34.9375 36.484375 34.496094 35.472656 34.414062 34.269531 C 34.773438 34.425781 35.167969 34.523438 35.582031 34.558594 C 35.59375 34.558594 35.609375 34.558594 35.625 34.558594 C 35.875 34.558594 36.085938 34.367188 36.109375 34.109375 C 36.128906 33.839844 35.929688 33.605469 35.660156 33.582031 C 33.757812 33.433594 32.515625 31.261719 32.585938 29.40625 C 32.609375 28.835938 32.808594 27.597656 34.066406 27.363281 C 34.121094 27.753906 34.25 28.144531 34.4375 28.507812 C 34.910156 29.414062 35.722656 30.046875 36.703125 30.296875 C 37.023438 31.667969 37.925781 32.855469 39.523438 33.105469 C 39.554688 33.113281 39.574219 33.113281 39.601562 33.113281 C 39.839844 33.113281 40.046875 32.941406 40.082031 32.699219 C 40.125 32.4375 39.9375 32.1875 39.675781 32.144531 C 38.117188 31.902344 37.480469 30.332031 37.546875 28.886719 C 37.558594 28.617188 37.34375 28.386719 37.082031 28.382812 C 36.808594 28.367188 36.582031 28.582031 36.574219 28.84375 C 36.566406 28.972656 36.566406 29.101562 36.574219 29.222656 C 36.039062 28.992188 35.585938 28.585938 35.316406 28.054688 C 35.117188 27.667969 35.015625 27.253906 35.007812 26.835938 C 35.007812 26.835938 35.007812 26.828125 35.007812 26.828125 C 35.007812 26.820312 35.007812 26.820312 35.007812 26.8125 C 35.007812 26.378906 35.109375 25.9375 35.316406 25.523438 C 36.402344 23.3125 39.773438 23.128906 41.683594 23.355469 C 41.761719 23.691406 41.90625 24.039062 42.117188 24.398438 C 42.261719 24.625 42.5625 24.695312 42.789062 24.554688 C 43.019531 24.410156 43.089844 24.113281 42.949219 23.882812 C 42.726562 23.527344 42.613281 23.207031 42.589844 22.90625 C 42.589844 22.902344 42.589844 22.902344 42.589844 22.894531 C 42.5625 22.429688 42.777344 22.03125 43.242188 21.675781 C 44.304688 20.863281 46.542969 20.414062 48.9375 20.535156 C 51.40625 20.664062 53.539062 21.359375 54.488281 22.359375 C 55.386719 23.308594 55.21875 24.53125 53.960938 25.988281 C 53.78125 26.191406 53.808594 26.5 54.007812 26.671875 C 54.101562 26.75 54.214844 26.785156 54.324219 26.785156 C 54.460938 26.785156 54.59375 26.726562 54.695312 26.613281 C 56.695312 24.28125 56.03125 22.671875 55.332031 21.84375 C 56.175781 21.824219 56.890625 22.09375 57.394531 22.378906 C 58.453125 22.964844 59.304688 23.949219 59.746094 25.074219 C 58.890625 25.296875 58.054688 25.824219 57.394531 26.769531 C 56.773438 27.660156 56.503906 28.808594 56.238281 29.921875 C 55.929688 31.203125 55.636719 32.421875 54.875 32.871094 C 54.507812 33.085938 54.023438 33.140625 53.394531 33.019531 C 53.394531 32.964844 53.394531 32.90625 53.394531 32.84375 C 53.386719 32.570312 53.167969 32.359375 52.894531 32.363281 C 52.621094 32.371094 52.410156 32.59375 52.414062 32.863281 C 52.414062 33.007812 52.402344 33.132812 52.378906 33.261719 C 52.378906 33.261719 52.378906 33.269531 52.378906 33.269531 C 52.230469 33.941406 51.695312 34.390625 51.222656 34.660156 C 50.257812 35.222656 49 35.351562 48.558594 35.085938 C 48.328125 34.953125 48.027344 35.023438 47.886719 35.257812 C 47.75 35.488281 47.820312 35.785156 48.058594 35.929688 C 48.363281 36.113281 48.785156 36.199219 49.25 36.199219 C 50.027344 36.199219 50.945312 35.957031 51.714844 35.507812 C 52.414062 35.101562 52.910156 34.574219 53.171875 33.976562 C 53.464844 34.03125 53.738281 34.0625 53.996094 34.0625 C 54.515625 34.0625 54.972656 33.945312 55.367188 33.710938 C 56.488281 33.050781 56.839844 31.574219 57.183594 30.148438 C 57.425781 29.128906 57.675781 28.066406 58.195312 27.328125 C 58.804688 26.449219 59.597656 26.035156 60.382812 25.945312 C 60.382812 25.945312 60.382812 25.945312 60.390625 25.945312 C 60.417969 25.945312 60.453125 25.9375 60.484375 25.9375 C 61.105469 25.886719 61.726562 26.027344 62.25 26.3125 C 63.335938 26.898438 64.335938 28.253906 63.570312 30.164062 C 63.46875 30.414062 63.589844 30.695312 63.839844 30.796875 C 64.070312 30.890625 64.320312 30.796875 64.441406 30.597656 C 65.636719 31.617188 66.507812 33.339844 66.328125 34.460938 Z M 66.328125 34.460938 " fill-opacity="1" fill-rule="nonzero"/></g><g fill="#ffffff" fill-opacity="1"><g transform="translate(2.669065, 46.874995)"><g><path d="M 6.210938 -11.273438 L 19.578125 -11.273438 L 19.578125 -16.375 L 6.210938 -16.375 L 6.210938 -22.546875 L 24.722656 -22.546875 L 24.722656 -27.648438 L 1.109375 -27.648438 L 1.109375 0 L 6.210938 0 Z M 6.210938 -11.273438 "/></g></g></g><g fill="#ffffff" fill-opacity="1"><g transform="translate(28.497188, 46.874995)"><g/></g></g><g fill="#ffffff" fill-opacity="1"><g transform="translate(42.260859, 46.874995)"><g/></g></g><g fill="#ffffff" fill-opacity="1"><g transform="translate(56.024531, 46.874995)"><g/></g></g><g fill="#ffffff" fill-opacity="1"><g transform="translate(69.79406, 46.874995)"><g><path d="M 24.722656 -4.035156 L 21.082031 -7.671875 C 17.679688 -4.230469 12.183594 -4.230469 8.78125 -7.671875 C 5.339844 -11.074219 5.339844 -16.574219 8.78125 -19.976562 C 12.183594 -23.417969 17.679688 -23.417969 21.082031 -19.976562 L 24.722656 -23.613281 C 19.304688 -29.035156 10.5625 -29.035156 5.140625 -23.613281 C -0.277344 -18.195312 -0.277344 -9.453125 5.140625 -4.035156 C 10.5625 1.382812 19.304688 1.382812 24.722656 -4.035156 Z M 24.722656 -4.035156 "/></g></g></g><g fill="#ffffff" fill-opacity="1"><g transform="translate(95.620718, 46.874995)"><g><path d="M 12.894531 0 C 19.421875 0 24.722656 -5.261719 24.722656 -11.789062 L 24.722656 -27.6875 L 19.578125 -27.6875 L 19.578125 -11.789062 C 19.578125 -8.109375 16.613281 -5.101562 12.894531 -5.101562 C 9.214844 -5.101562 6.210938 -8.109375 6.210938 -11.789062 L 6.210938 -27.6875 L 1.109375 -27.6875 L 1.109375 -11.789062 C 1.109375 -5.261719 6.367188 0 12.894531 0 Z M 12.894531 0 "/></g></g></g><g fill="#ffffff" fill-opacity="1"><g transform="translate(121.447376, 46.874995)"><g><path d="M 16.535156 -5.101562 L 9.296875 -5.101562 C 7.59375 -5.101562 6.210938 -6.488281 6.210938 -8.1875 L 1.109375 -8.1875 C 1.109375 -3.640625 4.746094 0 9.296875 0 L 16.535156 0 C 21.042969 0 24.722656 -3.640625 24.722656 -8.1875 C 24.722656 -12.695312 21.042969 -16.375 16.535156 -16.375 L 9.296875 -16.375 C 7.59375 -16.375 6.210938 -17.761719 6.210938 -19.460938 C 6.210938 -21.160156 7.59375 -22.546875 9.296875 -22.546875 L 16.535156 -22.546875 C 18.234375 -22.546875 19.621094 -21.160156 19.621094 -19.460938 L 24.722656 -19.460938 C 24.722656 -24.011719 21.042969 -27.648438 16.535156 -27.648438 L 9.296875 -27.648438 C 4.746094 -27.648438 1.109375 -24.011719 1.109375 -19.460938 C 1.109375 -14.953125 4.746094 -11.273438 9.296875 -11.273438 L 16.535156 -11.273438 C 18.234375 -11.273438 19.621094 -9.890625 19.621094 -8.1875 C 19.621094 -6.488281 18.234375 -5.101562 16.535156 -5.101562 Z M 16.535156 -5.101562 "/></g></g></g></svg>